<svg xmlns="http://www.w3.org/2000/svg" version="1.1" xmlns:xlink="http://www.w3.org/1999/xlink" xmlns:svgjs="http://svgjs.dev/svgjs" width="1000" height="1000" viewBox="0 0 1000 1000"><g transform="matrix(1,0,0,1,-0.14221556886212738,-0.14221556886229791)"><svg viewBox="0 0 334 334" data-background-color="#ffffff" preserveAspectRatio="xMidYMid meet" height="1000" width="1000" xmlns="http://www.w3.org/2000/svg" xmlns:xlink="http://www.w3.org/1999/xlink"><g id="tight-bounds" transform="matrix(1,0,0,1,0.04749999999998522,0.04750000000001364)"><svg viewBox="0 0 333.90454557049503 333.90454557049503" height="333.90454557049503" width="333.90454557049503"><g><svg></svg></g><g><svg viewBox="0 0 333.90454557049503 333.90454557049503" height="333.90454557049503" width="333.90454557049503"><g><path d="M0 166.952c0-92.205 74.747-166.952 166.952-166.952 92.205 0 166.952 74.747 166.953 166.952 0 92.205-74.747 166.952-166.953 166.953-92.205 0-166.952-74.747-166.952-166.953zM166.952 316.63c82.665 0 149.677-67.013 149.678-149.678 0-82.665-67.013-149.677-149.678-149.677-82.665 0-149.677 67.013-149.677 149.677 0 82.665 67.013 149.677 149.677 149.678z" data-fill-palette-color="tertiary" fill="#1d366f" stroke="transparent"></path><ellipse rx="160.27418187383762" ry="160.27418187383762" cx="166.95227278524752" cy="166.95227278524752" fill="#1d366f" stroke="transparent" stroke-width="0" fill-opacity="1" data-fill-palette-color="tertiary"></ellipse></g><g transform="matrix(1,0,0,1,75.48986211481616,71.17305217166896)"><svg viewBox="0 0 182.9248213408627 191.55844122715712" height="191.55844122715712" width="182.9248213408627"><g><svg viewBox="0 0 182.9248213408627 191.55844122715712" height="191.55844122715712" width="182.9248213408627"><g><svg viewBox="0 0 182.9248213408627 191.55844122715712" height="191.55844122715712" width="182.9248213408627"><g><svg viewBox="0 0 182.9248213408627 191.55844122715712" height="191.55844122715712" width="182.9248213408627"><g id="textblocktransform"><svg viewBox="0 0 182.9248213408627 191.55844122715712" height="191.55844122715712" width="182.9248213408627" id="textblock"><g><svg viewBox="0 0 182.9248213408627 191.55844122715712" height="191.55844122715712" width="182.9248213408627"><g transform="matrix(1,0,0,1,0,0)"><svg width="182.9248213408627" viewBox="0.5 -35.5 33.900001525878906 35.5" height="191.55844122715712" data-palette-color="#ffffff"><path d="M24.35-1.45Q24.35-0.8 21.3-0.4 18.25 0 15.23 0 12.2 0 11.3-0.33 10.4-0.65 10.4-1.45L10.4-1.45 10.4-10.15Q0.5-30.4 0.5-32.15L0.5-32.15Q0.5-33.2 3.85-34.35 7.2-35.5 10.9-35.5L10.9-35.5Q15.65-35.5 15.95-32.7L15.95-32.7 17.3-19.25 17.85-19.25 18.8-32.35Q18.9-33.75 22.35-34.63 25.8-35.5 28.9-35.5 32-35.5 33.2-34.6 34.4-33.7 34.4-32.7L34.4-32.7Q34.4-31.75 24.35-10.15L24.35-10.15 24.35-1.45Z" opacity="1" transform="matrix(1,0,0,1,0,0)" fill="#ffffff" class="undefined-text-0" data-fill-palette-color="quaternary" id="text-0"></path></svg></g></svg></g></svg></g></svg></g><g></g></svg></g></svg></g></svg></g></svg></g><defs></defs></svg><rect width="333.90454557049503" height="333.90454557049503" fill="none" stroke="none" visibility="hidden"></rect></g></svg></g></svg>